<svg class="plot-d6a7b5" fill="currentColor" font-family="system-ui, sans-serif" font-size="10" text-anchor="middle" width="640" height="400" viewBox="0 0 640 400" xmlns="http://www.w3.org/2000/svg" xmlns:xlink="http://www.w3.org/1999/xlink"><style>:where(.plot-d6a7b5) {
  --plot-background: white;
  display: block;
  height: auto;
  height: intrinsic;
  max-width: 100%;
}
:where(.plot-d6a7b5 text),
:where(.plot-d6a7b5 tspan) {
  white-space: pre;
}</style><g aria-label="y-axis tick" aria-hidden="true" fill="none" stroke="none"><path transform="translate(40,370)" d="M0,0L-6,0"/><path transform="translate(40,318.9795918367347)" d="M0,0L-6,0"/><path transform="translate(40,267.95918367346934)" d="M0,0L-6,0"/><path transform="translate(40,216.93877551020407)" d="M0,0L-6,0"/><path transform="translate(40,165.91836734693877)" d="M0,0L-6,0"/><path transform="translate(40,114.89795918367348)" d="M0,0L-6,0"/><path transform="translate(40,63.87755102040817)" d="M0,0L-6,0"/></g><g aria-label="y-axis tick label" text-anchor="end" font-variant="tabular-nums" transform="translate(-9,0)"></g><g aria-label="x-grid" aria-hidden="true" stroke="currentColor" stroke-opacity="0.1"><line x1="40" x2="40" y1="20" y2="370"/><line x1="148.75" x2="148.75" y1="20" y2="370"/><line x1="257.5" x2="257.5" y1="20" y2="370"/><line x1="366.25" x2="366.25" y1="20" y2="370"/><line x1="475" x2="475" y1="20" y2="370"/><line x1="583.75" x2="583.75" y1="20" y2="370"/></g><g aria-label="x-axis tick" aria-hidden="true" fill="none" stroke="currentColor"><path transform="translate(40,370)" d="M0,0L0,6"/><path transform="translate(148.75,370)" d="M0,0L0,6"/><path transform="translate(257.5,370)" d="M0,0L0,6"/><path transform="translate(366.25,370)" d="M0,0L0,6"/><path transform="translate(475,370)" d="M0,0L0,6"/><path transform="translate(583.75,370)" d="M0,0L0,6"/></g><g aria-label="x-axis tick label" font-variant="tabular-nums" transform="translate(0,9)"><text transform="translate(40,370)"><tspan x="0" y="0.71em">12 AM</tspan><tspan x="0" dy="1em">Jan 14</tspan></text><text y="0.71em" transform="translate(148.75,370)">12 PM</text><text transform="translate(257.5,370)"><tspan x="0" y="0.71em">12 AM</tspan><tspan x="0" dy="1em">Jan 15</tspan></text><text y="0.71em" transform="translate(366.25,370)">12 PM</text><text transform="translate(475,370)"><tspan x="0" y="0.71em">12 AM</tspan><tspan x="0" dy="1em">Jan 16</tspan></text><text y="0.71em" transform="translate(583.75,370)">12 PM</text></g><g aria-label="rule" stroke="currentColor"><line x1="40" x2="620" y1="370" y2="370"/></g><g aria-label="line" fill="none" stroke="currentColor" stroke-width="1.5" stroke-linejoin="round" stroke-linecap="round"><path d="M40,361.837L49.063,361.837L58.125,361.837L67.188,362.857L76.25,361.837L85.313,362.857L94.375,362.857L103.438,357.755L112.5,362.857L121.563,359.796L130.625,360.816L139.688,362.857L148.75,360.816L157.813,361.837L166.875,360.816L175.938,359.796L185,361.837L194.063,361.837L203.125,362.857L212.188,345.51L221.25,361.837L230.313,361.837L239.375,361.837L248.438,358.776L257.5,360.816L266.563,347.551L275.625,325.102L284.688,332.245L293.75,328.163L302.813,341.429L311.875,334.286L320.938,314.898L330,322.041L339.063,325.102L348.125,317.959L357.188,311.837L366.25,303.673L375.313,331.224L384.375,20L393.438,102.653L402.5,178.163L411.563,226.122L420.625,223.061L429.688,214.898L438.75,280.204L447.813,295.51L456.875,336.327L465.938,339.388L475,343.469L484.063,345.51L493.125,352.653L502.188,332.245L511.25,339.388L520.313,345.51L529.375,342.449L538.438,350.612L547.5,344.49L556.563,342.449L565.625,351.633L574.688,347.551L583.75,355.714L592.813,348.571L601.875,345.51L610.938,346.531L620,368.98"/></g><g aria-label="tip" fill="var(--plot-background)" stroke="currentColor" pointer-events="none" text-anchor="start"/></svg>